{"title":"Ek Chalis Ki Last Local (2007) DVDRip XviD AC3","uid":8391962,"size":1593931731,"categoryP":"video","categoryS":"movies","magnet":"?xt=urn:btih:09a8e8f2b51325f7101195724681a64445462251&amp;dn=Ek+Chalis+Ki+Last+Local+%282007%29+DVDRip+XviD+AC3&amp;tr=udp%3A%2F%2Ftracker.openbittorrent.com%3A80&amp;tr=udp%3A%2F%2Fopen.demonii.com%3A1337&amp;tr=udp%3A%2F%2Ftracker.coppersurfer.tk%3A6969&amp;tr=udp%3A%2F%2Fexodus.desync.com%3A6969","seeders":1,"leechers":1,"uploader":"shreecds","files":4,"time":1366416587,"description":" &lt;a href=&quot;http://media.apunkachoice.com/image/u/i/yp/bi/image-1-936-poster_1.jpg&quot; rel=&quot;nofollow&quot; target=&quot;_NEW&quot;&gt;http://media.apunkachoice.com/image/u/i/yp/bi/image-1-936-poster_1.jpg&lt;/a&gt;\n &lt;a href=&quot;\nhttp://imageshack.us/a/img32/9206/vlcsnap2012120916h38m59.png&quot; rel=&quot;nofollow&quot; target=&quot;_NEW&quot;&gt;\nhttp://imageshack.us/a/img32/9206/vlcsnap2012120916h38m59.png&lt;/a&gt;\n &lt;a href=&quot;\nhttp://imageshack.us/a/img703/1443/vlcsnap2012120916h39m36.png&quot; rel=&quot;nofollow&quot; target=&quot;_NEW&quot;&gt;\nhttp://imageshack.us/a/img703/1443/vlcsnap2012120916h39m36.png&lt;/a&gt;\n\nVideo\nID : 0\nFormat : MPEG-4 Visual\nFormat profile : Advanced Simple@L5\nFormat settings, BVOP : Yes\nFormat settings, QPel : Yes\nFormat settings, GMC : No warppoints\nFormat settings, Matrix : Default (H.263)\nCodec ID : XVID\nCodec ID/Hint : XviD\nDuration : 2h 22mn\nBit rate : 1 003 Kbps\nWidth : 720 pixels\nHeight : 314 pixels\nDisplay aspect ratio : 2.25:1\nFrame rate : 23.976 fps\nColor space : YUV\nChroma subsampling : 40\nBit depth : 8 bits\nScan type : Progressive\nBits/(Pixel*Frame) : 0.185\nStream size : 1.00 GiB (69%)\nWriting library : XviD 1.2.1 (UTC 2008-12-04)\n\nAudio\nID : 1\nFormat : AC-3\nFormat/Info : Audio Coding 3\nMode extension : CM (complete main)\nCodec ID : 2000\nDuration : 2h 22mn\nBit rate mode : Constant\nBit rate : 448 Kbps\nChannel(s) : 6 channels\nChannel positions : Front: L C R, Side: L R, LFE\nSampling rate : 48.0 KHz\nBit depth : 16 bits\nStream size : 458 MiB (31%)\nAlignment : Aligned on interleaves\nInterleave, duration : 64 ms (1.53 video frames)\nInterleave, preload duration : 192 ms\nTitle : VTS_01_1 T80 3_2ch 448Kbps DELAY 0ms_new \n\nAll Credit to Original Ripper\nseeding till coming 48 hours \n\n","torrent":{"xt":"urn:btih:09a8e8f2b51325f7101195724681a64445462251","amp;dn":"Ek+Chalis+Ki+Last+Local+%282007%29+DVDRip+XviD+AC3","amp;tr":["udp%3A%2F%2Ftracker.openbittorrent.com%3A80","udp%3A%2F%2Fopen.demonii.com%3A1337","udp%3A%2F%2Ftracker.coppersurfer.tk%3A6969","udp%3A%2F%2Fexodus.desync.com%3A6969"],"infoHash":"09a8e8f2b51325f7101195724681a64445462251","infoHashBuffer":{"type":"Buffer","data":[9,168,232,242,181,19,37,247,16,17,149,114,70,129,166,68,69,70,34,81]},"announce":[],"urlList":[]}}